# xmcd CD database file
#
# Track frame offsets:
#	182
#	14982
#	29357
#	43737
#	60930
#	80480
#	94720
#	109482
#	125167
#	141622
#
# Disc length: 2125 seconds
#
# Revision: 2
# Processed by: cddbd v1.5.2PL0 Copyright (c) Steve Scherf et al.
# Submitted via: CDex 1.60beta1
#
DISCID=94084b0a
DTITLE=Gary Baker and Frank J. Myers - Baker and Myers
DYEAR=1994
DGENRE=Country
TTITLE0=Full Moon
TTITLE1=Breakin' The Bank
TTITLE2=These Arms
TTITLE3=Shoulder To Cry On
TTITLE4=Still Fallin'
TTITLE5=Wide Open
TTITLE6=Real Deal
TTITLE7=Years From Here
TTITLE8=A Little Bit Of Honey
TTITLE9=A Random Act Of Senseless Kindness
EXTD=YEAR: 1994
EXTT0=
EXTT1=
EXTT2=
EXTT3=
EXTT4=
EXTT5=
EXTT6=
EXTT7=
EXTT8=
EXTT9=
PLAYORDER=
